HIERARCHY
ROOT SpineBase
{
  OFFSET 0.000000 0.000000 0.000000
  CHANNELS 6 Xposition Yposition Zposition Zrotation Xrotation Yrotation
  JOINT SpineMid
  {
    OFFSET 0.000000 31.949205 0.000000
    CHANNELS 3 Zrotation Xrotation Yrotation
    JOINT SpineShoulder
    {
      OFFSET -0.060471 23.713001 -0.870273
      CHANNELS 3 Zrotation Xrotation Yrotation
      JOINT Neck
      {
        OFFSET -0.014399 7.846500 -0.650890
        CHANNELS 3 Zrotation Xrotation Yrotation
        JOINT Head
        {
          OFFSET 5.862527 11.456353 3.437367
          CHANNELS 3 Zrotation Xrotation Yrotation
          End Site
          {
            OFFSET 0 0 0
          }
        }
      }
      JOINT ShoulderLeft
      {
        OFFSET -12.873559 -1.855572 -11.702287
        CHANNELS 3 Zrotation Xrotation Yrotation
        JOINT ElbowLeft
        {
          OFFSET -9.601746 -20.711206 -5.393029
          CHANNELS 3 Zrotation Xrotation Yrotation
          JOINT WristLeft
          {
            OFFSET 18.711772 -11.596788 -4.423080
            CHANNELS 3 Zrotation Xrotation Yrotation
            JOINT HandLeft
            {
              OFFSET 6.779949 -2.184336 3.859401
              CHANNELS 3 Zrotation Xrotation Yrotation
              JOINT HandTipLeft
              {
                OFFSET 7.918116 0.883959 -1.883897
                CHANNELS 3 Zrotation Xrotation Yrotation
                End Site
                {
                  OFFSET 0 0 0
                }
              }
              JOINT ThumbLeft
              {
                OFFSET -1.836067 -7.841882 1.550819
                CHANNELS 3 Zrotation Xrotation Yrotation
                End Site
                {
                  OFFSET 0 0 0
                }
              }
            }
          }
        }
      }
      JOINT ShoulderRight
      {
        OFFSET 13.228113 -3.769893 10.123938
        CHANNELS 3 Zrotation Xrotation Yrotation
        JOINT ElbowRight
        {
          OFFSET 2.616930 -21.884373 6.233049
          CHANNELS 3 Zrotation Xrotation Yrotation
          JOINT WristRight
          {
            OFFSET 0.830709 -12.384634 -20.893532
            CHANNELS 3 Zrotation Xrotation Yrotation
            JOINT HandRight
            {
              OFFSET -3.806243 -3.840780 -4.895035
              CHANNELS 3 Zrotation Xrotation Yrotation
              JOINT HandTipRight
              {
                OFFSET 1.611479 -3.432992 -4.937543
                CHANNELS 3 Zrotation Xrotation Yrotation
                End Site
                {
                  OFFSET 0 0 0
                }
              }
              JOINT ThumbRight
              {
                OFFSET -2.787344 -8.765079 1.772230
                CHANNELS 3 Zrotation Xrotation Yrotation
                End Site
                {
                  OFFSET 0 0 0
                }
              }
            }
          }
        }
      }
    }
  }
  JOINT HipLeft
  {
    OFFSET -5.221060 1.480774 -8.297235
    CHANNELS 3 Zrotation Xrotation Yrotation
    JOINT KneeLeft
    {
      OFFSET -9.295698 -34.951520 -1.917840
      CHANNELS 3 Zrotation Xrotation Yrotation
      JOINT AnkleLeft
      {
        OFFSET -13.074861 -34.535431 1.839880
        CHANNELS 3 Zrotation Xrotation Yrotation
        JOINT FootLeft
        {
          OFFSET -3.780643 -8.143418 -8.490695
          CHANNELS 3 Zrotation Xrotation Yrotation
          End Site
          {
            OFFSET 0 0 0
          }
        }
      }
    }
  }
  JOINT HipRight
  {
    OFFSET 5.812372 0.190418 0.993332
    CHANNELS 3 Zrotation Xrotation Yrotation
    JOINT KneeRight
    {
      OFFSET -0.814633 -36.580507 2.416772
      CHANNELS 3 Zrotation Xrotation Yrotation
      JOINT AnkleRight
      {
        OFFSET -6.153896 -36.018957 7.505297
        CHANNELS 3 Zrotation Xrotation Yrotation
        JOINT FootRight
        {
          OFFSET 1.655623 -7.428753 -6.942300
          CHANNELS 3 Zrotation Xrotation Yrotation
          End Site
          {
            OFFSET 0 0 0
          }
        }
      }
    }
  }
}
MOTION
Frames: 14
Frame Time: 0.033333
-30.002994 80.364770 346.736043 -0.000000 0.000000 -40.098644 0.000000 0.000000 40.098644 -0.000000 0.000000 0.000000 -0.000000 0.000000 0.000000 0.000000 0.000000 0.000000 -0.000000 0.000000 0.000000 -0.000000 0.000000 0.000000 -0.000000 0.000000 0.000000 -0.000000 0.000000 0.000000 0.000000 0.000000 0.000000 0.000000 0.000000 0.000000 -0.000000 0.000000 0.000000 -0.000000 0.000000 0.000000 -0.000000 0.000000 0.000000 -0.000000 0.000000 0.000000 0.000000 0.000000 0.000000 0.000000 0.000000 0.000000 0.000000 0.000000 40.098644 -0.000000 0.000000 0.000000 -0.000000 0.000000 0.000000 0.000000 0.000000 0.000000 0.000000 0.000000 40.098644 -0.000000 0.000000 0.000000 -0.000000 0.000000 0.000000 0.000000 0.000000 0.000000
-29.845899 80.150772 346.537262 0.304649 0.270589 -39.514507 -0.062861 -0.402589 39.513567 -0.000000 0.000000 0.000000 0.851165 -0.094844 -0.206988 0.000000 0.000000 0.000000 2.060930 -0.472132 -0.312271 -9.371632 -0.400537 1.978810 0.864811 5.063804 0.836929 -7.872361 -8.196168 0.575691 0.000000 0.000000 0.000000 0.000000 0.000000 0.000000 0.169746 4.309719 0.563493 -0.385332 -9.163408 -0.728054 2.109755 0.378301 2.075284 -4.371425 -1.732496 -1.514468 0.000000 0.000000 0.000000 0.000000 0.000000 0.000000 -0.062861 -0.402589 39.513567 -0.000000 0.000000 0.000000 0.081557 0.861193 -0.481851 0.000000 0.000000 0.000000 -0.062861 -0.402589 39.513567 -0.000000 0.000000 0.000000 0.360689 -1.390307 -0.649465 0.000000 0.000000 0.000000
-29.620097 79.962633 346.376616 0.639057 0.505310 -39.003015 -0.178628 -0.794868 38.998958 -0.000000 0.000000 0.000000 1.621391 -0.156831 -0.407155 0.000000 0.000000 0.000000 3.992777 -0.917596 -0.593538 -18.127899 -1.073828 3.827880 1.603333 9.700491 2.005898 -15.543897 -15.152565 -1.712539 0.000000 0.000000 0.000000 0.000000 0.000000 0.000000 0.320547 7.692742 1.010005 -0.839662 -17.197469 -1.518960 4.398629 0.651586 3.927641 -9.225036 -3.637712 -2.455503 0.000000 0.000000 0.000000 0.000000 0.000000 0.000000 -0.178628 -0.794868 38.998958 -0.000000 0.000000 0.000000 0.140513 1.639486 -0.896824 0.000000 0.000000 0.000000 -0.222199 -1.713757 38.972869 0.611838 0.686968 0.021467 0.619470 -2.582305 -1.163625 0.000000 0.000000 0.000000
-29.325588 79.800354 346.254102 1.003414 0.704781 -38.563400 -0.345355 -1.176543 38.553682 -0.000000 0.000000 0.000000 2.310274 -0.185394 -0.601149 0.000000 0.000000 0.000000 5.776892 -1.329679 -0.844254 -26.081630 -1.937847 5.469313 1.912446 13.927748 3.494900 -22.020145 -20.200593 -6.161131 0.000000 0.000000 0.000000 0.000000 0.000000 0.000000 0.471666 10.246127 1.354415 -1.332176 -24.122359 -2.382360 6.723483 0.978912 5.443576 -14.095916 -5.429308 -2.735958 0.000000 0.000000 0.000000 0.000000 0.000000 0.000000 -0.546046 -2.112855 38.749763 0.742568 0.604596 -0.205759 0.169592 2.307668 -1.226770 0.000000 0.000000 0.000000 -0.574018 -2.574891 38.498030 1.049479 0.951998 0.039447 0.779136 -3.560518 -1.539994 0.000000 0.000000 0.000000
-28.962371 79.663936 346.169723 1.397981 0.869520 -38.194621 -0.516391 -0.565421 38.202741 -0.291691 0.171464 0.002887 2.566893 -1.096106 -0.776466 0.000000 0.000000 0.000000 7.051358 -2.615124 -0.981063 -33.145256 -2.906618 6.867710 1.552103 17.794123 5.319546 -26.848755 -23.437289 -11.834032 0.000000 0.000000 0.000000 0.000000 0.000000 0.000000 0.290066 11.145420 1.584983 -1.834684 -29.971422 -3.317542 8.915472 1.512884 6.540307 -18.490962 -6.863768 -2.368358 0.000000 0.000000 0.000000 0.000000 0.000000 0.000000 -0.971192 -2.769690 38.407777 1.080290 0.702946 -0.253413 0.162241 2.840222 -1.455306 0.000000 0.000000 0.000000 -1.083379 -3.433790 38.075562 1.574204 1.162628 0.062205 0.842353 -4.313167 -1.776678 0.000000 0.000000 0.000000
-28.530448 79.553377 346.123477 1.823082 0.999942 -37.895396 -0.614269 -0.647089 37.907189 -0.382293 0.189630 0.007727 2.884908 -1.197165 -0.962649 0.000000 0.000000 0.000000 8.295738 -3.084211 -1.150182 -39.310247 -3.907116 8.020581 0.337522 21.354312 7.519144 -29.935131 -25.290841 -18.075553 0.000000 0.000000 0.000000 0.000000 0.000000 0.000000 0.272550 12.157413 1.744148 -2.318274 -34.781468 -4.315096 10.816096 2.369872 7.181984 -22.066980 -7.842259 -1.457638 0.000000 0.000000 0.000000 0.000000 0.000000 0.000000 -1.515749 -3.403098 38.114374 0.736867 1.221328 -0.493433 0.833968 2.750379 -1.349586 0.000000 0.000000 0.000000 -1.747414 -4.287671 37.700774 2.184597 1.317782 0.089980 0.811349 -4.831890 -1.872211 0.000000 0.000000 0.000000
-27.859351 79.486909 346.103909 2.485011 1.123788 -37.733088 -0.762652 -0.755929 37.750708 -0.562605 0.201016 0.012274 2.953405 -1.218398 -1.153185 0.000000 0.000000 0.000000 9.777621 -3.542030 -1.399192 -45.955531 -5.199831 9.094180 -4.614572 26.190492 11.651328 -30.827289 -26.347724 -27.917149 0.000000 0.000000 0.000000 0.000000 0.000000 0.000000 0.315755 12.777868 1.872461 -3.043282 -40.262308 -5.797805 11.552897 5.289152 8.526454 -23.933923 -7.774491 -1.614403 0.000000 0.000000 0.000000 0.000000 0.000000 0.000000 -2.418886 -4.300391 37.939968 1.016995 1.404855 -0.604268 1.183109 2.378342 -1.209660 0.000000 0.000000 0.000000 -2.947741 -5.425958 37.389721 3.156914 1.381985 0.139957 0.899962 -5.144582 -2.029389 0.000000 0.000000 0.000000
-27.202572 79.426566 346.133388 3.068018 1.186324 -37.593673 -0.861560 -0.812259 37.618868 -0.711771 0.192653 0.019373 3.033513 -1.157999 -1.367086 0.000000 0.000000 0.000000 10.754676 -3.892085 -1.560847 -51.325172 -6.323155 9.929976 -8.694887 29.569269 15.484780 -30.023295 -25.766349 -36.171140 0.000000 0.000000 0.000000 0.000000 0.000000 0.000000 0.146894 12.784711 1.878555 -3.374754 -43.805195 -7.035835 13.182225 7.184103 7.586455 -26.524940 -8.051299 1.721604 0.000000 0.000000 0.000000 0.000000 0.000000 0.000000 -3.342964 -5.020082 37.753964 1.321389 1.419567 -0.658955 1.317801 2.244603 -0.990181 0.000000 0.000000 0.000000 -4.123428 -6.397082 37.086964 4.085450 1.401373 0.189136 0.668464 -5.321036 -1.858505 0.000000 0.000000 0.000000
-26.632285 79.388640 346.211299 3.487435 1.206796 -37.389946 -0.902171 -0.808146 37.423546 -0.782712 0.182601 0.030132 3.115724 -1.163653 -1.528521 0.000000 0.000000 0.000000 11.172376 -4.093059 -1.660906 -54.275288 -6.937509 10.543825 -13.523396 31.943232 18.637007 -27.502264 -25.101938 -42.376705 0.000000 0.000000 0.000000 0.000000 0.000000 0.000000 0.131547 11.827053 1.798128 -3.577863 -44.911082 -7.944840 14.150189 8.981796 5.641122 -27.787169 -9.360270 4.295156 0.000000 0.000000 0.000000 0.000000 0.000000 0.000000 -4.157297 -5.479653 37.480025 1.597545 1.261506 -0.651548 1.244794 2.528169 -0.799139 0.000000 0.000000 0.000000 -5.030672 -7.098825 36.747386 4.797812 1.428888 0.225874 0.060068 -5.562517 -1.355198 0.000000 0.000000 0.000000
-26.190922 79.345020 346.339474 3.718736 1.170541 -37.170223 -0.896704 -0.739237 37.212885 -0.774943 0.178867 0.043230 3.281831 -1.119932 -1.716497 0.000000 0.000000 0.000000 11.047670 -4.210463 -1.660110 -55.720804 -7.262861 10.626805 -17.355942 32.916880 22.536162 -22.764477 -25.307729 -46.124061 0.000000 0.000000 0.000000 0.000000 0.000000 0.000000 0.091501 10.363730 1.655344 -3.446422 -43.727081 -8.194861 14.931817 8.800522 4.717966 -29.104578 -10.323757 6.876136 0.000000 0.000000 0.000000 0.000000 0.000000 0.000000 -4.875581 -5.571123 37.152371 1.864856 0.863347 -0.562773 0.995299 3.126678 -0.671278 0.000000 0.000000 0.000000 -5.633997 -7.490905 36.439074 4.605246 1.881973 0.057554 -0.073145 -6.082701 -0.410568 0.000000 0.000000 0.000000
-25.871157 79.277923 346.457408 3.804974 1.144233 -36.944126 -0.844615 -0.658524 36.994454 -0.711204 0.149137 0.057407 3.270520 -0.979578 -1.873194 0.000000 0.000000 0.000000 10.495219 -4.332716 -1.526885 -56.272979 -7.219187 11.077472 -17.053879 32.665443 24.305776 -22.606348 -25.268705 -47.237627 0.000000 0.000000 0.000000 0.000000 0.000000 0.000000 -0.064546 9.693925 1.571931 -3.143765 -43.084365 -8.685821 13.760806 10.551632 4.540142 -28.299588 -12.427466 6.653417 0.000000 0.000000 0.000000 0.000000 0.000000 0.000000 -5.366079 -5.535655 36.838429 2.061048 0.489127 -0.471393 0.697828 4.041433 -0.668718 0.000000 0.000000 0.000000 -5.954370 -7.697579 36.164141 4.721648 2.057636 0.018804 -0.662859 -5.633537 0.487814 0.000000 0.000000 0.000000
-25.703381 79.212598 346.554991 3.723730 1.129379 -36.764399 -0.725130 -0.550878 36.821615 -0.600349 0.129479 0.071476 3.153187 -0.897149 -1.948364 0.000000 0.000000 0.000000 9.622892 -4.421459 -1.324877 -55.608356 -6.823650 11.625449 -12.183799 31.245050 23.063414 -24.771906 -23.676250 -46.172070 0.000000 0.000000 0.000000 0.000000 0.000000 0.000000 -0.353956 9.248304 1.479635 -2.535643 -41.197218 -8.670144 13.622616 9.477614 4.652086 -27.342204 -10.156006 6.592398 0.000000 0.000000 0.000000 0.000000 0.000000 0.000000 -5.562719 -5.366777 36.601716 2.172508 0.181277 -0.388125 0.350396 4.779267 -0.596579 0.000000 0.000000 0.000000 -5.979211 -7.694918 35.978422 4.676774 2.202474 -0.020913 -1.117582 -5.440432 1.158016 0.000000 0.000000 0.000000
-25.676222 79.135560 346.630642 3.534636 1.127537 -36.566369 -0.669553 -0.436184 36.623177 -0.434544 0.131867 0.082956 3.104224 -1.049874 -1.910564 0.000000 0.000000 0.000000 8.577997 -4.564900 -1.052449 -54.190733 -6.179958 12.382659 -6.269174 29.139714 21.253397 -26.452612 -22.739758 -43.299185 0.000000 0.000000 0.000000 0.000000 0.000000 0.000000 -0.598760 8.728873 1.385774 -2.444799 -39.753844 -7.685680 13.536900 10.428931 1.181639 -26.134390 -11.499340 8.107653 0.000000 0.000000 0.000000 0.000000 0.000000 0.000000 -5.593928 -5.133115 36.366411 2.315324 -0.084213 -0.308320 -0.063846 5.219427 -0.426245 0.000000 0.000000 0.000000 -5.755780 -7.556963 35.810920 4.509636 2.348661 -0.058305 -1.511624 -5.402419 1.668359 0.000000 0.000000 0.000000
-25.583741 79.093926 346.678706 3.495191 1.152052 -36.418431 -0.679920 -0.394168 36.473260 -0.409500 0.163831 0.083378 2.892457 -1.261703 -1.775770 0.000000 0.000000 0.000000 7.744647 -4.586879 -0.890652 -52.620246 -5.652293 13.020226 0.224328 26.465984 18.990152 -29.540585 -21.432797 -39.194319 0.000000 0.000000 0.000000 0.000000 0.000000 0.000000 -0.859754 8.565088 1.319997 -2.668459 -38.563678 -5.948315 14.119303 10.365825 -2.269434 -24.644653 -9.969510 8.841352 0.000000 0.000000 0.000000 0.000000 0.000000 0.000000 -5.781542 -5.115272 36.179588 2.600901 -0.291930 -0.247561 -0.442598 5.695243 -0.346308 0.000000 0.000000 0.000000 -5.807691 -7.580681 35.648918 4.541655 2.381355 -0.069859 -1.570473 -5.428359 1.798154 0.000000 0.000000 0.000000
